<svg xmlns="http://www.w3.org/2000/svg" version="1.1" viewBox="0 0 3222.2 3147.3"><g><g featureKey="rootContainer"><path xmlns="http://www.w3.org/2000/svg" d="M50.8 102h5.8l1.8-.2 1.7-.3h1.7l1.9-.3 1.8-.4.9-.2.9-.3 1.7-.6 2-.8a54 54 0 0 0 15.3-9.4l1.4-1.2.7-.5.6-.4 1-.5.8-.5 1.5-1.2 1.5-1.5.8-1 .9-1.1a50.9 50.9 0 0 0 3.9-5.8 34.8 34.8 0 0 0 1.6-3.1l.2-.4.2-.4.3-.8.3-.9.2-.4v-.4l.4-1.2.2-.6v-.3h.1v-.2l.7-2.5c.2-.9.4-1.7.5-2.6a25.4 25.4 0 0 0 .2-2.6v-3.1c0-.3 0-1 .1-1.5v-2.1a21.3 21.3 0 0 0 .2-2.6v-2.6c0-.9-.1-1.1-.1-1.6l-.2-1.5c-.1-1-.4-2-.5-3s-.2-1-.3-1.4l-.3-1.4-.3-1.4v-1.7l-.4-1.4-.2-.7-.2-.7-.4-1.4-.5-1.4-.4-1-.5-1-1-2.1a40.7 40.7 0 0 1-1.8-4.1 3.6 3.6 0 0 0-.8-1.2l-.7-.6-.2-.3-.3-.5a25.7 25.7 0 0 0-1.6-2.3l-.8-1.1-.9-1.1-.4-.5-.2-.3-.2-.2h-.1l-.9-1-.5-.5-.5-.5-.9-1.1-1.1-1a47.9 47.9 0 0 0-3.8-3l-.1-.5-1.3-.9A29 29 0 0 0 72 .4h-3.1a.8.8 0 0 0-.6 1.2A3.9 3.9 0 0 0 69.9 3l-.6.3-.4-.2a.9.9 0 0 0 0-.3c-.1-.5-.2-.9-1.3-1.3L65.3.7l-.6-.2h-.6L62.8 0l-1.3 1.2A48.5 48.5 0 0 0 39 2.4 31.1 31.1 0 0 0 31.4 4h-.5l-.5.2-1 .4-1 .5-.9.6-1.8 1.5-.8.6-.7.7c-1 .9-1.9 1.9-2.8 2.8L20 12.8l-1.4 1.5-.5.5-.5.5-1.1 1a55.1 55.1 0 0 0-7 7l.2-.5.6-1.1.6-1.1.6-1.1.6-1.2.6-1.2 1.2-2.4.4-.8.3-.6a1 1 0 0 0 0-.8 3.7 3.7 0 0 1-.2-1.2 17.1 17.1 0 0 0-2.1 1.1l-1.5 1.1-.8.6-.7.7-.8 1-.5 1-.5 1-.2.5-.3.5-.3.6-.4.8-.4.8-.7 1.7-.5 1.3-.5 1.3v.7l-.2.6-.3 1.3v.2h-.4v.3l-.2.7-.3 1.4-.2.7-.2.7-.4 1.7-.4 1.9-.2.9v2.8l-.6 1.9a38.3 38.3 0 0 0-.1 4.1 52.7 52.7 0 0 0-.7 8.7 5.2 5.2 0 0 0 0 .7c.5 3 .8 6 1.5 9l.4 1.8.5 1.8a18.3 18.3 0 0 0 .6 1.7l.4.8.4.8.9 1.7.5.8.5.8.5.8.5.8L7.8 77c1.4 2 2.9 4 4.5 5.9a35.6 35.6 0 0 0 2.6 2.7l.7.6.3.3.4.3 1.5 1.1 1 1a34 34 0 0 0 8.2 6.2l1.4.7 1.5.7.7.3.8.3 1.5.6.9.4.8.4.8.4 1 .4 1.9.7 1.9.6 1.6.4 1.6.4 1.6.3h5.7z" transform="scale(11.111) translate(10 10) matrix(2.581 0 0 2.581 .030434 0)"/></g><g fill="#fff" featureKey="symbolFeature-0"><path xmlns="http://www.w3.org/2000/svg" d="m74.313 0-28.094 78h8.469l28.094-78h-8.469zm-36.313 11.25-2.188 1.406-34 22-1.813 1.156v4.25l1.688 1.219 34 24 2.313 1.594v-9.781l-26.844-18.969 26.844-17.375v-9.5zm52 0v9.5l26.844 17.375-26.844 18.969v9.781l2.313-1.594 34-24 1.688-1.219v-4.25l-1.813-1.156-34-22-2.188-1.406z" transform="scale(11.111) translate(10 10) matrix(.78124 0 0 .78124 85.001 38.469) translate(0 25)"/></g><g fill="#fff" featureKey="nameFeature-0"><path d="m8.92 10 0.6-0.24c0.48-0.2 1-0.16 1.48 0 0.12 0.04 0.24 0.12 0.24 0.24 0.04 0.28 0.08 0.56 0.12 0.8 0.08 0.6 0 1.2 0.12 1.76 0.04 0.16 0 0.36 0 0.52 0 1.2 0 2.4 0.12 3.6 0.08 1.28 0.08 2.56 0.08 3.84 0 0.28 0.04 0.56 0.08 0.8v0.68 1.68c0 0.08 0.04 0.16 0.04 0.24s0.12 0.16 0.2 0.12c0.12 0 0.24-0.04 0.36-0.08 0.28-0.12 0.56-0.2 0.84-0.32 0.12-0.04 0.28-0.08 0.4-0.08 0.36 0 0.64-0.08 0.96-0.16 0.44-0.12 0.88-0.12 1.32-0.12 0.08 0 0.2 0.04 0.28 0.08s0.2 0.12 0.2 0.2c0.2 0.68 0.36 1.4 0.32 2.12 0 0.16 0 0.32-0.04 0.48s-0.12 0.24-0.24 0.28c-0.2 0.04-0.36 0.12-0.56 0.12-0.64 0-1.24 0.16-1.8 0.32-0.68 0.16-1.32 0.4-2 0.6-0.16 0.04-0.2 0.16-0.2 0.32 0 0.8-0.08 1.6 0 2.36 0.04 0.2 0.04 0.4 0.04 0.6v6.64c0 1.04-0.08 2.12-0.12 3.16 0 0.16-0.12 0.28-0.28 0.28-0.24 0-0.48 0.04-0.72 0.08-0.64 0.08-1.32 0.12-1.96-0.04-0.24-0.08-0.36-0.2-0.36-0.4-0.08-0.36-0.12-0.76-0.12-1.12-0.08-3.2-0.04-6.4-0.04-9.6 0-0.24 0.04-0.48-0.08-0.72-0.08 0-0.2 0-0.28 0.04-0.68 0.24-1.32 0.48-2 0.72-0.2 0.08-0.28 0.2-0.28 0.4v0.64 6.2c0 0.28 0 0.56-0.04 0.8 0 0.2-0.08 0.28-0.28 0.32-0.56 0.08-1.16 0.16-1.76 0.16-0.24 0-0.48-0.04-0.72-0.12-0.04 0-0.08 0-0.12-0.04-0.2-0.08-0.32-0.2-0.32-0.44-0.04-0.4-0.04-0.84-0.04-1.24-0.04-1.64-0.04-3.24-0.04-4.88v-0.64c0-0.36-0.04-0.4-0.4-0.4-0.16-0.04-0.36-0.04-0.56-0.08-0.12 0-0.2-0.08-0.24-0.16-0.12-0.4-0.24-0.8-0.2-1.24 0-0.32 0-0.68 0.08-1 0.08-0.2 0.16-0.36 0.4-0.4 0.28-0.12 0.6-0.2 0.92-0.28 0.04-0.12 0.04-0.24 0.04-0.36 0.04-1.04 0.04-2.04 0.08-3.08 0-0.6 0-1.2 0.04-1.76 0.08-0.6 0.04-1.2 0.08-1.76 0.04-1.04 0.04-2.04 0.08-3.04 0.04-0.72 0.04-1.44 0.08-2.12l0.12-1.56c0-0.16 0.04-0.32 0.08-0.52l0.24-1.08c0.04-0.28 0.36-0.56 0.64-0.6h0.32c0.56 0 0.64 0.16 0.68 0.56 0.04 0.12 0.04 0.2 0.08 0.28 0.24 0.88 0.32 1.76 0.36 2.64 0.04 1.12 0.12 2.24 0.12 3.36 0 0.12-0.04 0.2 0 0.32 0.12 1.08 0.12 2.16 0.12 3.24 0 0.56 0.04 1.12 0.04 1.68v0.28c0.12 0.68 0.08 1.36 0.08 2 0 0.16 0.04 0.28 0.04 0.44 0 0.04 0.08 0.08 0.12 0.08h0.12l2.16-0.84c0.16-0.08 0.28-0.16 0.28-0.36 0.04-0.88 0.04-1.72 0.08-2.6 0-1.24 0-2.48 0.04-3.76 0-0.64 0.08-1.32 0.12-1.96 0-0.32 0-0.6 0.04-0.88 0-1.2 0.04-2.36 0.08-3.56 0.04-0.64 0.12-1.32 0.16-1.96 0-0.16 0.04-0.32 0.08-0.48zm12.446 4.56c-1.08-0.2-2.2-0.2-3.32-0.16-0.44 0.04-0.56-0.04-0.76-0.44-0.2-0.44-0.24-0.92-0.24-1.44 0-0.56 0.08-0.68 0.72-0.92 0.36-0.16 0.72-0.16 1.12-0.2 0.84-0.04 1.68 0 2.52 0.04h1.24c0.56-0.04 1.16-0.04 1.72-0.04 0.08 0 0.2 0 0.28 0.04 0.28 0.12 0.52 0.12 0.8 0.12h2.16c0.16 0 0.36-0.04 0.52 0.04 0 0.04 0.04 0.08 0.08 0.12 0.04 0.44 0.12 0.84 0.16 1.28 0 0.2-0.04 0.4 0 0.56 0 0.28-0.08 0.56-0.16 0.8-0.04 0.16-0.16 0.28-0.32 0.28-0.4 0.04-0.84 0.04-1.24 0.04h-1.64c-0.24 0-0.36 0.12-0.36 0.36v0.6c0 0.4 0.04 0.84 0.04 1.24v6.64c0 1.56 0.04 3.16 0 4.72v6.76c0 0.24 0 0.44 0.04 0.68 0 0.04 0.04 0.08 0.08 0.08 0.12 0.04 0.24 0.08 0.36 0.08 0.56 0 1.12 0.16 1.68 0.04l1.56 0.12c0.08 0.04 0.16 0.04 0.24 0.04l0.36 0.24c0.08 0.08 0.12 0.2 0.16 0.32 0.16 0.44 0.12 0.88 0.04 1.32 0 0.04-0.04 0.08-0.04 0.12-0.2 0.76-0.28 0.76-0.96 0.68-0.04 0-0.12-0.04-0.16-0.04-0.64 0-1.28-0.04-1.92-0.08-0.44 0-0.84 0.04-1.24 0.08-0.24 0.04-0.48 0.04-0.64 0.24-0.4 0.12-0.8 0.24-1.2 0.28-0.36 0.04-0.68-0.12-1-0.28-0.08-0.04-0.16-0.12-0.24-0.16-0.12-0.04-0.24-0.08-0.36-0.08-0.2 0-0.4 0.04-0.6 0-0.2 0-0.44 0-0.64 0.08-0.16 0.08-0.32 0.12-0.52 0.12-0.24 0-0.52 0.04-0.8 0.12-0.48 0.12-0.96 0.04-1.44-0.12-0.16-0.12-0.32-0.28-0.44-0.4-0.04-0.04-0.04-0.08-0.04-0.12 0-0.2 0.04-0.36 0.04-0.52 0.04-0.24 0.08-0.48 0.04-0.76-0.04-0.2 0-0.44 0.08-0.64 0.04-0.24 0.24-0.44 0.52-0.48 0.48-0.04 1-0.08 1.48-0.12l0.72-0.12s0.48-0.08 0.72 0c0.2 0.04 0.4 0 0.6-0.04 0.32-0.04 0.36-0.08 0.36-0.44v-1.76c-0.04-0.92-0.04-1.8-0.04-2.68v-6.68c0.04-1.96 0.04-3.92 0.08-5.88 0-0.96 0-1.92 0.08-2.88v-0.24c0.04-0.24-0.08-0.4-0.28-0.56zm10.406 0.4c-0.12-0.52-0.16-1-0.16-1.48 0-0.24-0.04-0.52 0-0.8 0.08-0.52 0.16-0.64 0.72-0.68 0.16-0.04 0.32-0.04 0.44 0 0.76 0 1.52-0.08 2.24-0.32 0.08 0 0.16-0.04 0.2-0.04 0.48-0.04 0.92-0.08 1.4-0.12 0.2 0 0.4 0 0.56 0.04 0.32 0 0.6 0.04 0.88 0.08 0.12 0.04 0.24 0.04 0.36 0.08 0.44 0.12 0.88 0.24 1.36 0.2 0.24 0 0.48 0.04 0.72 0.16 0.16 0.08 0.36 0.16 0.52 0.2 0.16 0.08 0.32 0.12 0.48 0.2 0.48 0.28 0.92 0.6 1.4 0.92 0.12 0.08 0.2 0.2 0.28 0.32 0.32 0.36 0.64 0.76 1 1.08 0.2 0.16 0.32 0.36 0.44 0.56 0.32 0.44 0.6 0.92 0.76 1.48 0.12 0.36 0.24 0.72 0.32 1.12 0 0.2 0.08 0.36 0.16 0.56 0.04 0.12 0.08 0.24 0.08 0.36 0.04 0.72 0.16 1.44 0.28 2.16v0.08c-0.04 0.76 0.16 1.52 0.16 2.32 0.04 0.72 0.08 1.44 0.2 2.16 0.04 0.24 0.12 0.48 0.16 0.72 0 0.16 0.04 0.32 0.04 0.52 0.04 0.48 0.08 0.96 0.08 1.44 0 0.52-0.04 1.04-0.04 1.52 0 0.52-0.08 1.04-0.16 1.52-0.08 0.6-0.08 1.16-0.24 1.76v0.36c0 0.24-0.04 0.48-0.16 0.68-0.08 0.24-0.16 0.48-0.2 0.72 0 0.12-0.04 0.28-0.12 0.4-0.12 0.28-0.16 0.56-0.16 0.88 0 0.2-0.08 0.36-0.2 0.52-0.16 0.2-0.28 0.44-0.36 0.72-0.08 0.24-0.28 0.4-0.44 0.56 0 0.04-0.04 0.08-0.12 0.12-0.28 0.08-0.52 0.28-0.76 0.52-0.04 0.04-0.16 0.08-0.28 0.08-0.24 0-0.44 0.04-0.68 0.12-0.64 0.08-1.28 0.28-1.96 0.28-0.6 0.04-1.2 0.04-1.8 0-1.08-0.04-2.12 0-3.16 0-0.12 0-0.24 0-0.36 0.04h-0.2c-0.56 0-1.08-0.04-1.6-0.08-0.08-0.04-0.2-0.08-0.28-0.12-0.16-0.24-0.44-0.28-0.68-0.4-0.08-0.04-0.16-0.12-0.16-0.24 0.04-0.48 0-1 0.2-1.48 0.04-0.16 0.12-0.32 0.16-0.48 0.12-0.28 0.32-0.36 0.6-0.4 0.2-0.04 0.44 0 0.64 0.08 0.08 0 0.2-0.08 0.2-0.16 0.04-0.24 0.04-0.44 0.04-0.68v-7.48-8.56-3.48c0-0.16 0-0.32-0.04-0.44 0-0.08-0.08-0.12-0.16-0.16-0.32-0.04-0.64-0.04-0.92 0.04-0.36 0.12-0.72 0.12-1.08 0-0.16-0.08-0.4-0.08-0.6-0.08zm5.88-0.16c0 0.08-0.04 0.12-0.04 0.2v0.68 19.36 0.52 0.24c0.04 0.08 0.12 0.16 0.2 0.16h0.44c0.64 0.04 1.24 0 1.84 0.04 0.48 0 0.92-0.08 1.36-0.16 0.28-0.04 0.56-0.16 0.84-0.24 0.16-0.08 0.24-0.16 0.24-0.32 0.04-0.32 0.12-0.6 0.24-0.84 0.12-0.28 0.16-0.56 0.24-0.84 0.04-0.12 0.08-0.2 0.12-0.28 0.12-0.2 0.16-0.4 0.2-0.6 0.08-0.48 0.12-0.92 0.2-1.4 0.2-1.2 0.2-2.4 0.2-3.6 0-0.4-0.04-0.8-0.16-1.16-0.08-0.16-0.08-0.32-0.12-0.48-0.04-0.4-0.04-0.8-0.12-1.16-0.04-0.16-0.04-0.36-0.04-0.52 0.04-0.6 0-1.16-0.08-1.76-0.04-0.24-0.04-0.52-0.08-0.8 0-0.12 0-0.28-0.04-0.4-0.08-0.68-0.2-1.36-0.32-2.04-0.08-0.64-0.32-1.2-0.52-1.8-0.04-0.2-0.16-0.36-0.28-0.52-0.28-0.28-0.56-0.6-0.8-0.92-0.24-0.28-0.48-0.48-0.8-0.64-0.4-0.28-0.8-0.4-1.28-0.52-0.2-0.04-0.4-0.08-0.64-0.12s-0.52-0.12-0.8-0.08zm24.606-2.88c0 0.04 0.04 0.04 0.04 0.08 0.16 0.68 0.2 1.4 0.2 2.16l-0.04 0.04c-0.12 0.64-0.08 0.76-0.8 0.8-0.24 0.04-0.52 0.04-0.8 0.04h-6.28c-0.24 0-0.48 0-0.72 0.04-0.2 0-0.28 0.08-0.28 0.24v0.72s0.04 0.48 0.04 0.72v1.32c0 0.56 0 1.08 0.08 1.64v0.6 5.12c0 0.24-0.04 0.48 0.04 0.76 0.12-0.04 0.2 0 0.28-0.04 0.92-0.32 1.84-0.48 2.76-0.52 0.64-0.08 1.32-0.12 1.96-0.24 0.32-0.08 0.64-0.12 1-0.12 0.36-0.04 0.64-0.08 0.96-0.28 0.08-0.04 0.24-0.04 0.32 0.08 0.16 0.2 0.36 0.36 0.6 0.52 0.36 0.24 0.56 0.88 0.28 1.44-0.32 0.6-0.48 0.84-1.32 1-0.28 0.04-0.52 0.08-0.8 0.12-0.84 0.12-1.68 0.24-2.52 0.32-0.12 0.04-0.28 0.04-0.4 0.04-1.04 0.08-2 0.36-2.92 0.8-0.16 0.08-0.24 0.2-0.24 0.4v1.08 4c0 0.2 0 0.4 0.04 0.64 0 0.08 0.04 0.12 0.12 0.16h0.64 6.32 0.48c0.72 0.04 0.64-0.04 0.76 0.64 0.08 0.56 0.08 1.08 0.08 1.6v0.16c-0.2 0.6-0.12 0.72-0.84 0.72-1.08 0.04-2.16 0.04-3.28 0h-2.32c-0.96 0-1.96 0-2.96-0.04-0.56-0.04-1.08-0.12-1.64-0.2-0.12 0-0.2-0.12-0.24-0.24-0.32-0.88-0.32-0.88-0.32-1.84-0.04-1.08-0.04-2.2-0.04-3.32v-8.04c0.04-2.4 0.08-4.84 0.08-7.24 0-0.8 0.08-1.6 0.08-2.4 0-0.16 0.04-0.36-0.12-0.52-0.08-0.32-0.2-0.6-0.28-0.88-0.08-0.64-0.12-1.28 0.08-1.88 0.08-0.16 0.16-0.24 0.32-0.24h0.52 10.44c0.2 0 0.44-0.04 0.64 0.04zm6.886 9.28c0.4 0.56 0.84 1.08 1.32 1.6 0.36 0.44 0.8 0.72 1.28 0.96 0.36 0.12 0.68 0.28 1 0.44 0.56 0.36 1.04 0.72 1.48 1.16 0.4 0.4 0.8 0.84 1.24 1.16 0.12 0.12 0.2 0.24 0.36 0.36h0.32c0.12 0.04 0.2 0.08 0.28 0.16 0.28 0.28 0.48 0.6 0.56 1 0.04 0.32 0.12 0.64 0.24 0.96 0.12 0.4 0.16 0.84 0.2 1.28v1.16c0 0.2 0 0.44 0.12 0.64 0.04 0.08 0.04 0.2 0.04 0.32 0.04 0.24 0.04 0.48 0.08 0.68 0.08 0.56 0.08 1.08-0.04 1.64-0.04 0.08-0.04 0.2-0.04 0.32-0.04 0.08-0.04 0.2-0.08 0.32-0.16 0.4-0.24 0.84-0.4 1.28 0 0.04-0.04 0.12-0.08 0.16-0.2 0.28-0.36 0.6-0.56 0.88-0.08 0.12-0.16 0.24-0.28 0.36-0.32 0.08-0.64 0.2-0.96 0.4-0.08 0.08-0.2 0.12-0.36 0.12-0.12 0-0.28 0.04-0.44 0.04-0.24 0.04-0.4 0.12-0.56 0.32s-0.36 0.28-0.6 0.32h-0.2c-0.24 0.04-0.52 0.12-0.76 0.12-0.28 0-0.52-0.08-0.76-0.12h-0.4c-0.24 0-0.48-0.04-0.68-0.16-0.36-0.16-0.76-0.28-1.12-0.36-0.28-0.08-0.52-0.2-0.76-0.36s-0.48-0.32-0.72-0.44c-0.6-0.32-1-0.88-1.36-1.48-0.04-0.2-0.12-0.4-0.12-0.6-0.04-0.4-0.16-0.76-0.2-1.16-0.12-0.6-0.24-1.2-0.2-1.8 0.04-0.2 0.04-0.4 0.08-0.6 0.04-0.28 0.08-0.56 0.08-0.84 0-0.16 0-0.32 0.04-0.48 0.12-0.28 0.08-0.52 0.04-0.76-0.08-0.24-0.12-0.44-0.2-0.68 0.08-0.2 0.16-0.4 0.24-0.64 0.04-0.12 0.16-0.2 0.28-0.2h0.48c0.44-0.04 0.92-0.04 1.36-0.04 0.2 0 0.32 0.08 0.44 0.2 0.08 0.08 0.12 0.16 0.12 0.24-0.04 0.24 0 0.44 0.2 0.6 0.08 0.08 0.12 0.2 0.08 0.36-0.04 0.08-0.08 0.2-0.12 0.32-0.08 0.2-0.12 0.44-0.08 0.68 0.08 0.24 0.04 0.52 0.08 0.76 0 0.28-0.04 0.52 0.08 0.8 0.04 0.12 0.04 0.24 0 0.36-0.12 0.36-0.08 0.68-0.04 1.04 0 0.16 0.08 0.32 0.24 0.44 0.36 0.32 0.72 0.6 1.2 0.76 0.12 0.04 0.28 0.12 0.4 0.16 0.2 0.08 0.4 0.12 0.64 0.12 0.16 0 0.36 0 0.52 0.08 0.56 0.12 1.08 0.04 1.6-0.16 0.2-0.04 0.4-0.16 0.6-0.24 0.16-0.44 0.32-0.84 0.28-1.32v-2.84-0.4c0-0.28-0.08-0.52-0.36-0.64-0.08-0.08-0.16-0.16-0.2-0.28-0.08-0.36-0.32-0.64-0.6-0.88-0.52-0.48-1-0.96-1.52-1.44-0.12-0.08-0.2-0.2-0.36-0.24-0.16 0-0.36-0.08-0.48-0.16-0.28-0.16-0.56-0.24-0.88-0.32-0.8-0.2-1.52-0.56-2.12-1.12-0.52-0.48-0.84-1.04-1.16-1.56-0.16-0.24-0.28-0.52-0.4-0.76-0.2-0.36-0.24-0.8-0.36-1.16-0.04-0.08 0-0.16 0-0.2 0.08-0.28 0.12-0.52-0.04-0.76-0.04-0.48-0.16-0.92-0.12-1.4 0.04-0.44 0.08-0.88 0.04-1.32v-0.16c0.12-0.32 0.12-0.6 0.12-0.92v-1.88c-0.04-0.4 0.08-0.76 0.32-1.08 0.08-0.12 0.12-0.2 0.2-0.28 0.28-0.36 0.6-0.76 0.92-1.12 0.04-0.08 0.12-0.12 0.24-0.2 0.36-0.16 0.64-0.4 0.96-0.64 0.24-0.2 0.52-0.36 0.84-0.48 0.28-0.08 0.52-0.24 0.8-0.24 0.12 0 0.24-0.04 0.4-0.04 0.32 0 0.64-0.04 0.96-0.08 0.2-0.04 0.44 0 0.64 0.04 0.36 0.04 0.68 0.08 1.04 0.08 0.24 0.04 0.52 0.04 0.76 0.12 0.2 0.04 0.4 0.16 0.6 0.28 0.32 0.2 0.56 0.52 0.76 0.84 0.16 0.24 0.28 0.48 0.48 0.68 0.12 0.16 0.24 0.32 0.28 0.52 0.04 0.12 0.08 0.24 0.16 0.36 0.12 0.36 0.24 0.72 0.28 1.12 0.04 0.16 0.08 0.32 0.08 0.44 0.04 0.32 0.16 0.6 0.4 0.8 0.12 0.08 0.12 0.16 0.12 0.28 0 0.48 0 0.96-0.04 1.44-0.08 0.36-0.08 0.72-0.08 1.08 0 0.52-0.04 1-0.16 1.48-0.04 0.2-0.04 0.36 0 0.52 0.04 0.12 0.04 0.2 0.04 0.32 0 0.08 0 0.12-0.04 0.2-0.16 0.16-0.32 0.28-0.52 0.36-0.44 0.12-0.88 0.2-1.36 0.28-0.04 0.04-0.12 0-0.16-0.04-0.12-0.12-0.28-0.28-0.4-0.44 0-0.04-0.04-0.12-0.04-0.16-0.04-0.28-0.08-0.52-0.08-0.8 0.04-0.36 0-0.72 0-1.08 0-0.28 0.04-0.56-0.04-0.84-0.04-0.04-0.04-0.08-0.04-0.12 0.08-0.72-0.12-1.44-0.28-2.12 0-0.04 0-0.08-0.04-0.12-0.2-0.36-0.36-0.8-0.68-1.12-0.2-0.24-0.44-0.48-0.68-0.68-0.28-0.24-0.6-0.36-0.88-0.52h-0.2c-0.44 0-0.84 0.16-1.24 0.36-0.08 0.04-0.12 0.12-0.2 0.16l-0.56 0.56s-0.4 0.4-0.44 0.68c0 0.12-0.04 0.2-0.04 0.28-0.04 0.08-0.08 0.2-0.04 0.32 0.04 0.32-0.16 0.68-0.12 1v2.88c0 0.16 0.04 0.32 0.04 0.52zm18.326-11.2 0.6-0.24c0.48-0.2 1-0.16 1.48 0 0.12 0.04 0.24 0.12 0.24 0.24 0.04 0.28 0.08 0.56 0.12 0.8 0.08 0.6 0 1.2 0.12 1.76 0.04 0.16 0 0.36 0 0.52 0 1.2 0 2.4 0.12 3.6 0.08 1.28 0.08 2.56 0.08 3.84 0 0.28 0.04 0.56 0.08 0.8v0.68 1.68c0 0.08 0.04 0.16 0.04 0.24s0.12 0.16 0.2 0.12c0.12 0 0.24-0.04 0.36-0.08 0.28-0.12 0.56-0.2 0.84-0.32 0.12-0.04 0.28-0.08 0.4-0.08 0.36 0 0.64-0.08 0.96-0.16 0.44-0.12 0.88-0.12 1.32-0.12 0.08 0 0.2 0.04 0.28 0.08s0.2 0.12 0.2 0.2c0.2 0.68 0.36 1.4 0.32 2.12 0 0.16 0 0.32-0.04 0.48s-0.12 0.24-0.24 0.28c-0.2 0.04-0.36 0.12-0.56 0.12-0.64 0-1.24 0.16-1.8 0.32-0.68 0.16-1.32 0.4-2 0.6-0.16 0.04-0.2 0.16-0.2 0.32 0 0.8-0.08 1.6 0 2.36 0.04 0.2 0.04 0.4 0.04 0.6v6.64c0 1.04-0.08 2.12-0.12 3.16 0 0.16-0.12 0.28-0.28 0.28-0.24 0-0.48 0.04-0.72 0.08-0.64 0.08-1.32 0.12-1.96-0.04-0.24-0.08-0.36-0.2-0.36-0.4-0.08-0.36-0.12-0.76-0.12-1.12-0.08-3.2-0.04-6.4-0.04-9.6 0-0.24 0.04-0.48-0.08-0.72-0.08 0-0.2 0-0.28 0.04-0.68 0.24-1.32 0.48-2 0.72-0.2 0.08-0.28 0.2-0.28 0.4v0.64 6.2c0 0.28 0 0.56-0.04 0.8 0 0.2-0.08 0.28-0.28 0.32-0.56 0.08-1.16 0.16-1.76 0.16-0.24 0-0.48-0.04-0.72-0.12-0.04 0-0.08 0-0.12-0.04-0.2-0.08-0.32-0.2-0.32-0.44-0.04-0.4-0.04-0.84-0.04-1.24-0.04-1.64-0.04-3.24-0.04-4.88v-0.64c0-0.36-0.04-0.4-0.4-0.4-0.16-0.04-0.36-0.04-0.56-0.08-0.12 0-0.2-0.08-0.24-0.16-0.12-0.4-0.24-0.8-0.2-1.24 0-0.32 0-0.68 0.08-1 0.08-0.2 0.16-0.36 0.4-0.4 0.28-0.12 0.6-0.2 0.92-0.28 0.04-0.12 0.04-0.24 0.04-0.36 0.04-1.04 0.04-2.04 0.08-3.08 0-0.6 0-1.2 0.04-1.76 0.08-0.6 0.04-1.2 0.08-1.76 0.04-1.04 0.04-2.04 0.08-3.04 0.04-0.72 0.04-1.44 0.08-2.12l0.12-1.56c0-0.16 0.04-0.32 0.08-0.52l0.24-1.08c0.04-0.28 0.36-0.56 0.64-0.6h0.32c0.56 0 0.64 0.16 0.68 0.56 0.04 0.12 0.04 0.2 0.08 0.28 0.24 0.88 0.32 1.76 0.36 2.64 0.04 1.12 0.12 2.24 0.12 3.36 0 0.12-0.04 0.2 0 0.32 0.12 1.08 0.12 2.16 0.12 3.24 0 0.56 0.04 1.12 0.04 1.68v0.28c0.12 0.68 0.08 1.36 0.08 2 0 0.16 0.04 0.28 0.04 0.44 0 0.04 0.08 0.08 0.12 0.08h0.12l2.16-0.84c0.16-0.08 0.28-0.16 0.28-0.36 0.04-0.88 0.04-1.72 0.08-2.6 0-1.24 0-2.48 0.04-3.76 0-0.64 0.08-1.32 0.12-1.96 0-0.32 0-0.6 0.04-0.88 0-1.2 0.04-2.36 0.08-3.56 0.04-0.64 0.12-1.32 0.16-1.96 0-0.16 0.04-0.32 0.08-0.48z" transform="scale(11.111) translate(10 10) matrix(2.1204 0 0 2.1204 33.066 118.59)"/></g></g></svg>